<svg width="128" height="128" viewBox="0 0 128 128" fill="none" xmlns="http://www.w3.org/2000/svg">
<path d="M22 8H26V12H22V8Z" fill="#FF383C"/>
<path d="M102 8H106V12H102V8Z" fill="#FF383C"/>
<path d="M98 8H102V12H98V8Z" fill="#FF383C"/>
<path d="M94 8H98V12H94V8Z" fill="#FF383C"/>
<path d="M90 8H94V12H90V8Z" fill="#FF383C"/>
<path d="M86 8H90V12H86V8Z" fill="#FF383C"/>
<path d="M82 8H86V12H82V8Z" fill="#FF383C"/>
<path d="M78 8H82V12H78V8Z" fill="#FF383C"/>
<path d="M74 8H78V12H74V8Z" fill="#FF383C"/>
<path d="M70 8H74V12H70V8Z" fill="#FF383C"/>
<path d="M66 8H70V12H66V8Z" fill="#FF383C"/>
<path d="M62 8H66V12H62V8Z" fill="#FF383C"/>
<path d="M58 8H62V12H58V8Z" fill="#FF383C"/>
<path d="M54 8H58V12H54V8Z" fill="#FF383C"/>
<path d="M50 8H54V12H50V8Z" fill="#FF383C"/>
<path d="M50 4H54V8H50V4Z" fill="#FF383C"/>
<path d="M74 4H78V8H74V4Z" fill="#FF383C"/>
<path d="M70 0H74V4H70V0Z" fill="#FF383C"/>
<path d="M66 0H70V4H66V0Z" fill="#FF383C"/>
<path d="M62 0H66V4H62V0Z" fill="#FF383C"/>
<path d="M58 0H62V4H58V0Z" fill="#FF383C"/>
<path d="M54 0H58V4H54V0Z" fill="#FF383C"/>
<path d="M46 8H50V12H46V8Z" fill="#FF383C"/>
<path d="M42 8H46V12H42V8Z" fill="#FF383C"/>
<path d="M38 8H42V12H38V8Z" fill="#FF383C"/>
<path d="M34 8H38V12H34V8Z" fill="#FF383C"/>
<path d="M30 8H34V12H30V8Z" fill="#FF383C"/>
<path d="M26 8H30V12H26V8Z" fill="#FF383C"/>
<path d="M18 12H22V16H18V12Z" fill="#FF383C"/>
<path d="M18 16H22V20H18V16Z" fill="#FF383C"/>
<path d="M18 20H22V24H18V20Z" fill="#FF383C"/>
<path d="M22 20H26V24H22V20Z" fill="#FF383C"/>
<path d="M22 24H26V28H22V24Z" fill="#FF383C"/>
<path d="M22 28H26V32H22V28Z" fill="#FF383C"/>
<path d="M22 32H26V36H22V32Z" fill="#FF383C"/>
<path d="M22 36H26V40H22V36Z" fill="#FF383C"/>
<path d="M22 40H26V44H22V40Z" fill="#FF383C"/>
<path d="M22 44H26V48H22V44Z" fill="#FF383C"/>
<path d="M22 48H26V52H22V48Z" fill="#FF383C"/>
<path d="M22 52H26V56H22V52Z" fill="#FF383C"/>
<path d="M22 56H26V60H22V56Z" fill="#FF383C"/>
<path d="M22 60H26V64H22V60Z" fill="#FF383C"/>
<path d="M22 64H26V68H22V64Z" fill="#FF383C"/>
<path d="M22 68H26V72H22V68Z" fill="#FF383C"/>
<path d="M22 72H26V76H22V72Z" fill="#FF383C"/>
<path d="M22 76H26V80H22V76Z" fill="#FF383C"/>
<path d="M22 80H26V84H22V80Z" fill="#FF383C"/>
<path d="M22 84H26V88H22V84Z" fill="#FF383C"/>
<path d="M22 88H26V92H22V88Z" fill="#FF383C"/>
<path d="M22 92H26V96H22V92Z" fill="#FF383C"/>
<path d="M22 96H26V100H22V96Z" fill="#FF383C"/>
<path d="M22 100H26V104H22V100Z" fill="#FF383C"/>
<path d="M22 104H26V108H22V104Z" fill="#FF383C"/>
<path d="M22 108H26V112H22V108Z" fill="#FF383C"/>
<path d="M22 112H26V116H22V112Z" fill="#FF383C"/>
<path d="M22 116H26V120H22V116Z" fill="#FF383C"/>
<path d="M22 120H26V124H22V120Z" fill="#FF383C"/>
<path d="M26 124H30V128H26V124Z" fill="#FF383C"/>
<path d="M30 124H34V128H30V124Z" fill="#FF383C"/>
<path d="M34 124H38V128H34V124Z" fill="#FF383C"/>
<path d="M38 124H42V128H38V124Z" fill="#FF383C"/>
<path d="M42 124H46V128H42V124Z" fill="#FF383C"/>
<path d="M46 124H50V128H46V124Z" fill="#FF383C"/>
<path d="M50 124H54V128H50V124Z" fill="#FF383C"/>
<path d="M54 124H58V128H54V124Z" fill="#FF383C"/>
<path d="M58 124H62V128H58V124Z" fill="#FF383C"/>
<path d="M62 124H66V128H62V124Z" fill="#FF383C"/>
<path d="M66 124H70V128H66V124Z" fill="#FF383C"/>
<path d="M70 124H74V128H70V124Z" fill="#FF383C"/>
<path d="M74 124H78V128H74V124Z" fill="#FF383C"/>
<path d="M78 124H82V128H78V124Z" fill="#FF383C"/>
<path d="M82 124H86V128H82V124Z" fill="#FF383C"/>
<path d="M86 124H90V128H86V124Z" fill="#FF383C"/>
<path d="M90 124H94V128H90V124Z" fill="#FF383C"/>
<path d="M94 124H98V128H94V124Z" fill="#FF383C"/>
<path d="M98 124H102V128H98V124Z" fill="#FF383C"/>
<path d="M26 20H30V24H26V20Z" fill="#FF383C"/>
<path d="M30 20H34V24H30V20Z" fill="#FF383C"/>
<path d="M34 20H38V24H34V20Z" fill="#FF383C"/>
<path d="M38 20H42V24H38V20Z" fill="#FF383C"/>
<path d="M42 20H46V24H42V20Z" fill="#FF383C"/>
<path d="M42 32H46V36H42V32Z" fill="#FF383C"/>
<path d="M38 36H42V40H38V36Z" fill="#FF383C"/>
<path d="M38 40H42V44H38V40Z" fill="#FF383C"/>
<path d="M38 44H42V48H38V44Z" fill="#FF383C"/>
<path d="M38 48H42V52H38V48Z" fill="#FF383C"/>
<path d="M38 52H42V56H38V52Z" fill="#FF383C"/>
<path d="M38 56H42V60H38V56Z" fill="#FF383C"/>
<path d="M38 60H42V64H38V60Z" fill="#FF383C"/>
<path d="M38 64H42V68H38V64Z" fill="#FF383C"/>
<path d="M38 68H42V72H38V68Z" fill="#FF383C"/>
<path d="M38 72H42V76H38V72Z" fill="#FF383C"/>
<path d="M38 76H42V80H38V76Z" fill="#FF383C"/>
<path d="M38 80H42V84H38V80Z" fill="#FF383C"/>
<path d="M38 84H42V88H38V84Z" fill="#FF383C"/>
<path d="M38 88H42V92H38V88Z" fill="#FF383C"/>
<path d="M38 92H42V96H38V92Z" fill="#FF383C"/>
<path d="M38 96H42V100H38V96Z" fill="#FF383C"/>
<path d="M38 100H42V104H38V100Z" fill="#FF383C"/>
<path d="M38 104H42V108H38V104Z" fill="#FF383C"/>
<path d="M38 108H42V112H38V108Z" fill="#FF383C"/>
<path d="M42 112H46V116H42V112Z" fill="#FF383C"/>
<path d="M58 32H62V36H58V32Z" fill="#FF383C"/>
<path d="M54 36H58V40H54V36Z" fill="#FF383C"/>
<path d="M54 40H58V44H54V40Z" fill="#FF383C"/>
<path d="M54 44H58V48H54V44Z" fill="#FF383C"/>
<path d="M54 48H58V52H54V48Z" fill="#FF383C"/>
<path d="M54 52H58V56H54V52Z" fill="#FF383C"/>
<path d="M54 56H58V60H54V56Z" fill="#FF383C"/>
<path d="M54 60H58V64H54V60Z" fill="#FF383C"/>
<path d="M54 64H58V68H54V64Z" fill="#FF383C"/>
<path d="M54 68H58V72H54V68Z" fill="#FF383C"/>
<path d="M54 72H58V76H54V72Z" fill="#FF383C"/>
<path d="M54 76H58V80H54V76Z" fill="#FF383C"/>
<path d="M54 80H58V84H54V80Z" fill="#FF383C"/>
<path d="M54 84H58V88H54V84Z" fill="#FF383C"/>
<path d="M54 88H58V92H54V88Z" fill="#FF383C"/>
<path d="M54 92H58V96H54V92Z" fill="#FF383C"/>
<path d="M54 96H58V100H54V96Z" fill="#FF383C"/>
<path d="M54 100H58V104H54V100Z" fill="#FF383C"/>
<path d="M54 104H58V108H54V104Z" fill="#FF383C"/>
<path d="M54 108H58V112H54V108Z" fill="#FF383C"/>
<path d="M58 112H62V116H58V112Z" fill="#FF383C"/>
<path d="M74 32H78V36H74V32Z" fill="#FF383C"/>
<path d="M70 36H74V40H70V36Z" fill="#FF383C"/>
<path d="M70 40H74V44H70V40Z" fill="#FF383C"/>
<path d="M70 44H74V48H70V44Z" fill="#FF383C"/>
<path d="M70 48H74V52H70V48Z" fill="#FF383C"/>
<path d="M70 52H74V56H70V52Z" fill="#FF383C"/>
<path d="M70 56H74V60H70V56Z" fill="#FF383C"/>
<path d="M70 60H74V64H70V60Z" fill="#FF383C"/>
<path d="M70 64H74V68H70V64Z" fill="#FF383C"/>
<path d="M70 68H74V72H70V68Z" fill="#FF383C"/>
<path d="M70 72H74V76H70V72Z" fill="#FF383C"/>
<path d="M70 76H74V80H70V76Z" fill="#FF383C"/>
<path d="M70 80H74V84H70V80Z" fill="#FF383C"/>
<path d="M70 84H74V88H70V84Z" fill="#FF383C"/>
<path d="M70 88H74V92H70V88Z" fill="#FF383C"/>
<path d="M70 92H74V96H70V92Z" fill="#FF383C"/>
<path d="M70 96H74V100H70V96Z" fill="#FF383C"/>
<path d="M70 100H74V104H70V100Z" fill="#FF383C"/>
<path d="M70 104H74V108H70V104Z" fill="#FF383C"/>
<path d="M70 108H74V112H70V108Z" fill="#FF383C"/>
<path d="M74 112H78V116H74V112Z" fill="#FF383C"/>
<path d="M90 32H94V36H90V32Z" fill="#FF383C"/>
<path d="M86 36H90V40H86V36Z" fill="#FF383C"/>
<path d="M86 40H90V44H86V40Z" fill="#FF383C"/>
<path d="M86 44H90V48H86V44Z" fill="#FF383C"/>
<path d="M86 48H90V52H86V48Z" fill="#FF383C"/>
<path d="M86 52H90V56H86V52Z" fill="#FF383C"/>
<path d="M86 56H90V60H86V56Z" fill="#FF383C"/>
<path d="M86 60H90V64H86V60Z" fill="#FF383C"/>
<path d="M86 64H90V68H86V64Z" fill="#FF383C"/>
<path d="M86 68H90V72H86V68Z" fill="#FF383C"/>
<path d="M86 72H90V76H86V72Z" fill="#FF383C"/>
<path d="M86 76H90V80H86V76Z" fill="#FF383C"/>
<path d="M86 80H90V84H86V80Z" fill="#FF383C"/>
<path d="M86 84H90V88H86V84Z" fill="#FF383C"/>
<path d="M86 88H90V92H86V88Z" fill="#FF383C"/>
<path d="M86 92H90V96H86V92Z" fill="#FF383C"/>
<path d="M86 96H90V100H86V96Z" fill="#FF383C"/>
<path d="M86 100H90V104H86V100Z" fill="#FF383C"/>
<path d="M86 104H90V108H86V104Z" fill="#FF383C"/>
<path d="M86 108H90V112H86V108Z" fill="#FF383C"/>
<path d="M90 112H94V116H90V112Z" fill="#FF383C"/>
<path d="M46 20H50V24H46V20Z" fill="#FF383C"/>
<path d="M50 20H54V24H50V20Z" fill="#FF383C"/>
<path d="M54 20H58V24H54V20Z" fill="#FF383C"/>
<path d="M58 20H62V24H58V20Z" fill="#FF383C"/>
<path d="M62 20H66V24H62V20Z" fill="#FF383C"/>
<path d="M66 20H70V24H66V20Z" fill="#FF383C"/>
<path d="M70 20H74V24H70V20Z" fill="#FF383C"/>
<path d="M74 20H78V24H74V20Z" fill="#FF383C"/>
<path d="M78 20H82V24H78V20Z" fill="#FF383C"/>
<path d="M82 20H86V24H82V20Z" fill="#FF383C"/>
<path d="M86 20H90V24H86V20Z" fill="#FF383C"/>
<path d="M90 20H94V24H90V20Z" fill="#FF383C"/>
<path d="M94 20H98V24H94V20Z" fill="#FF383C"/>
<path d="M98 20H102V24H98V20Z" fill="#FF383C"/>
<path d="M102 20H106V24H102V20Z" fill="#FF383C"/>
<path d="M102 24H106V28H102V24Z" fill="#FF383C"/>
<path d="M102 28H106V32H102V28Z" fill="#FF383C"/>
<path d="M102 32H106V36H102V32Z" fill="#FF383C"/>
<path d="M102 36H106V40H102V36Z" fill="#FF383C"/>
<path d="M102 40H106V44H102V40Z" fill="#FF383C"/>
<path d="M102 44H106V48H102V44Z" fill="#FF383C"/>
<path d="M102 48H106V52H102V48Z" fill="#FF383C"/>
<path d="M102 52H106V56H102V52Z" fill="#FF383C"/>
<path d="M102 56H106V60H102V56Z" fill="#FF383C"/>
<path d="M102 60H106V64H102V60Z" fill="#FF383C"/>
<path d="M102 64H106V68H102V64Z" fill="#FF383C"/>
<path d="M102 68H106V72H102V68Z" fill="#FF383C"/>
<path d="M102 72H106V76H102V72Z" fill="#FF383C"/>
<path d="M102 76H106V80H102V76Z" fill="#FF383C"/>
<path d="M102 80H106V84H102V80Z" fill="#FF383C"/>
<path d="M102 84H106V88H102V84Z" fill="#FF383C"/>
<path d="M102 88H106V92H102V88Z" fill="#FF383C"/>
<path d="M102 92H106V96H102V92Z" fill="#FF383C"/>
<path d="M102 96H106V100H102V96Z" fill="#FF383C"/>
<path d="M102 100H106V104H102V100Z" fill="#FF383C"/>
<path d="M102 104H106V108H102V104Z" fill="#FF383C"/>
<path d="M102 108H106V112H102V108Z" fill="#FF383C"/>
<path d="M102 112H106V116H102V112Z" fill="#FF383C"/>
<path d="M102 116H106V120H102V116Z" fill="#FF383C"/>
<path d="M102 120H106V124H102V120Z" fill="#FF383C"/>
<path d="M106 20H110V24H106V20Z" fill="#FF383C"/>
<path d="M106 16H110V20H106V16Z" fill="#FF383C"/>
<path d="M106 12H110V16H106V12Z" fill="#FF383C"/>
</svg>
