<svg width="128" height="128" viewBox="0 0 128 128" fill="none" xmlns="http://www.w3.org/2000/svg">
<path d="M14 4H18V8H14V4Z" fill="#FF383C"/>
<path d="M14 0H18V4H14V0Z" fill="#FF383C"/>
<path d="M18 0H22V4H18V0Z" fill="#FF383C"/>
<path d="M22 0H26V4H22V0Z" fill="#FF383C"/>
<path d="M26 0H30V4H26V0Z" fill="#FF383C"/>
<path d="M30 0H34V4H30V0Z" fill="#FF383C"/>
<path d="M34 0H38V4H34V0Z" fill="#FF383C"/>
<path d="M38 0H42V4H38V0Z" fill="#FF383C"/>
<path d="M42 0H46V4H42V0Z" fill="#FF383C"/>
<path d="M46 0H50V4H46V0Z" fill="#FF383C"/>
<path d="M50 0H54V4H50V0Z" fill="#FF383C"/>
<path d="M54 0H58V4H54V0Z" fill="#FF383C"/>
<path d="M58 0H62V4H58V0Z" fill="#FF383C"/>
<path d="M62 0H66V4H62V0Z" fill="#FF383C"/>
<path d="M66 0H70V4H66V0Z" fill="#FF383C"/>
<path d="M70 0H74V4H70V0Z" fill="#FF383C"/>
<path d="M74 0H78V4H74V0Z" fill="#FF383C"/>
<path d="M78 0H82V4H78V0Z" fill="#FF383C"/>
<path d="M82 0H86V4H82V0Z" fill="#FF383C"/>
<path d="M86 0H90V4H86V0Z" fill="#FF383C"/>
<path d="M90 4H94V8H90V4Z" fill="#FF383C"/>
<path d="M94 8H98V12H94V8Z" fill="#FF383C"/>
<path d="M98 12H102V16H98V12Z" fill="#FF383C"/>
<path d="M102 16H106V20H102V16Z" fill="#FF383C"/>
<path d="M106 20H110V24H106V20Z" fill="#FF383C"/>
<path d="M110 24H114V28H110V24Z" fill="#FF383C"/>
<path d="M110 28H114V32H110V28Z" fill="#FF383C"/>
<path d="M110 32H114V36H110V32Z" fill="#FF383C"/>
<path d="M110 36H114V40H110V36Z" fill="#FF383C"/>
<path d="M110 40H114V44H110V40Z" fill="#FF383C"/>
<path d="M110 44H114V48H110V44Z" fill="#FF383C"/>
<path d="M110 48H114V52H110V48Z" fill="#FF383C"/>
<path d="M110 52H114V56H110V52Z" fill="#FF383C"/>
<path d="M110 56H114V60H110V56Z" fill="#FF383C"/>
<path d="M110 60H114V64H110V60Z" fill="#FF383C"/>
<path d="M110 64H114V68H110V64Z" fill="#FF383C"/>
<path d="M110 68H114V72H110V68Z" fill="#FF383C"/>
<path d="M110 72H114V76H110V72Z" fill="#FF383C"/>
<path d="M110 76H114V80H110V76Z" fill="#FF383C"/>
<path d="M110 80H114V84H110V80Z" fill="#FF383C"/>
<path d="M110 84H114V88H110V84Z" fill="#FF383C"/>
<path d="M110 88H114V92H110V88Z" fill="#FF383C"/>
<path d="M110 92H114V96H110V92Z" fill="#FF383C"/>
<path d="M110 96H114V100H110V96Z" fill="#FF383C"/>
<path d="M110 100H114V104H110V100Z" fill="#FF383C"/>
<path d="M110 104H114V108H110V104Z" fill="#FF383C"/>
<path d="M110 108H114V112H110V108Z" fill="#FF383C"/>
<path d="M110 112H114V116H110V112Z" fill="#FF383C"/>
<path d="M110 116H114V120H110V116Z" fill="#FF383C"/>
<path d="M110 120H114V124H110V120Z" fill="#FF383C"/>
<path d="M110 124H114V128H110V124Z" fill="#FF383C"/>
<path d="M106 124H110V128H106V124Z" fill="#FF383C"/>
<path d="M102 124H106V128H102V124Z" fill="#FF383C"/>
<path d="M26 16H30V20H26V16Z" fill="#FF383C"/>
<path d="M26 40H30V44H26V40Z" fill="#FF383C"/>
<path d="M26 64H30V68H26V64Z" fill="#FF383C"/>
<path d="M26 88H30V92H26V88Z" fill="#FF383C"/>
<path d="M26 112H30V116H26V112Z" fill="#FF383C"/>
<path d="M50 16H54V20H50V16Z" fill="#FF383C"/>
<path d="M50 64H54V68H50V64Z" fill="#FF383C"/>
<path d="M62 64H66V68H62V64Z" fill="#FF383C"/>
<path d="M62 40H66V44H62V40Z" fill="#FF383C"/>
<path d="M62 44H66V48H62V44Z" fill="#FF383C"/>
<path d="M86 44H90V48H86V44Z" fill="#FF383C"/>
<path d="M62 48H66V52H62V48Z" fill="#FF383C"/>
<path d="M86 48H90V52H86V48Z" fill="#FF383C"/>
<path d="M62 52H66V56H62V52Z" fill="#FF383C"/>
<path d="M86 52H90V56H86V52Z" fill="#FF383C"/>
<path d="M62 56H66V60H62V56Z" fill="#FF383C"/>
<path d="M86 56H90V60H86V56Z" fill="#FF383C"/>
<path d="M62 60H66V64H62V60Z" fill="#FF383C"/>
<path d="M86 60H90V64H86V60Z" fill="#FF383C"/>
<path d="M50 28H54V32H50V28Z" fill="#FF383C"/>
<path d="M50 32H54V36H50V32Z" fill="#FF383C"/>
<path d="M50 36H54V40H50V36Z" fill="#FF383C"/>
<path d="M50 40H54V44H50V40Z" fill="#FF383C"/>
<path d="M50 44H54V48H50V44Z" fill="#FF383C"/>
<path d="M50 48H54V52H50V48Z" fill="#FF383C"/>
<path d="M50 52H54V56H50V52Z" fill="#FF383C"/>
<path d="M54 52H58V56H54V52Z" fill="#FF383C"/>
<path d="M58 52H62V56H58V52Z" fill="#FF383C"/>
<path d="M66 64H70V68H66V64Z" fill="#FF383C"/>
<path d="M66 40H70V44H66V40Z" fill="#FF383C"/>
<path d="M54 28H58V32H54V28Z" fill="#FF383C"/>
<path d="M70 64H74V68H70V64Z" fill="#FF383C"/>
<path d="M70 40H74V44H70V40Z" fill="#FF383C"/>
<path d="M58 28H62V32H58V28Z" fill="#FF383C"/>
<path d="M74 64H78V68H74V64Z" fill="#FF383C"/>
<path d="M74 40H78V44H74V40Z" fill="#FF383C"/>
<path d="M74 36H78V40H74V36Z" fill="#FF383C"/>
<path d="M74 32H78V36H74V32Z" fill="#FF383C"/>
<path d="M62 28H66V32H62V28Z" fill="#FF383C"/>
<path d="M78 64H82V68H78V64Z" fill="#FF383C"/>
<path d="M78 40H82V44H78V40Z" fill="#FF383C"/>
<path d="M66 28H70V32H66V28Z" fill="#FF383C"/>
<path d="M82 64H86V68H82V64Z" fill="#FF383C"/>
<path d="M82 40H86V44H82V40Z" fill="#FF383C"/>
<path d="M70 28H74V32H70V28Z" fill="#FF383C"/>
<path d="M86 64H90V68H86V64Z" fill="#FF383C"/>
<path d="M86 40H90V44H86V40Z" fill="#FF383C"/>
<path d="M74 28H78V32H74V28Z" fill="#FF383C"/>
<path d="M98 64H102V68H98V64Z" fill="#FF383C"/>
<path d="M98 88H102V92H98V88Z" fill="#FF383C"/>
<path d="M98 112H102V116H98V112Z" fill="#FF383C"/>
<path d="M98 40H102V44H98V40Z" fill="#FF383C"/>
<path d="M74 16H78V20H74V16Z" fill="#FF383C"/>
<path d="M74 88H78V92H74V88Z" fill="#FF383C"/>
<path d="M74 112H78V116H74V112Z" fill="#FF383C"/>
<path d="M98 124H102V128H98V124Z" fill="#FF383C"/>
<path d="M94 124H98V128H94V124Z" fill="#FF383C"/>
<path d="M90 124H94V128H90V124Z" fill="#FF383C"/>
<path d="M86 124H90V128H86V124Z" fill="#FF383C"/>
<path d="M82 124H86V128H82V124Z" fill="#FF383C"/>
<path d="M78 124H82V128H78V124Z" fill="#FF383C"/>
<path d="M74 124H78V128H74V124Z" fill="#FF383C"/>
<path d="M70 124H74V128H70V124Z" fill="#FF383C"/>
<path d="M66 124H70V128H66V124Z" fill="#FF383C"/>
<path d="M62 124H66V128H62V124Z" fill="#FF383C"/>
<path d="M58 124H62V128H58V124Z" fill="#FF383C"/>
<path d="M54 124H58V128H54V124Z" fill="#FF383C"/>
<path d="M50 124H54V128H50V124Z" fill="#FF383C"/>
<path d="M46 124H50V128H46V124Z" fill="#FF383C"/>
<path d="M42 124H46V128H42V124Z" fill="#FF383C"/>
<path d="M38 124H42V128H38V124Z" fill="#FF383C"/>
<path d="M34 124H38V128H34V124Z" fill="#FF383C"/>
<path d="M30 124H34V128H30V124Z" fill="#FF383C"/>
<path d="M26 124H30V128H26V124Z" fill="#FF383C"/>
<path d="M22 124H26V128H22V124Z" fill="#FF383C"/>
<path d="M106 24H110V28H106V24Z" fill="#FF383C"/>
<path d="M102 24H106V28H102V24Z" fill="#FF383C"/>
<path d="M98 24H102V28H98V24Z" fill="#FF383C"/>
<path d="M94 24H98V28H94V24Z" fill="#FF383C"/>
<path d="M90 24H94V28H90V24Z" fill="#FF383C"/>
<path d="M86 24H90V28H86V24Z" fill="#FF383C"/>
<path d="M86 20H90V24H86V20Z" fill="#FF383C"/>
<path d="M86 16H90V20H86V16Z" fill="#FF383C"/>
<path d="M86 12H90V16H86V12Z" fill="#FF383C"/>
<path d="M86 8H90V12H86V8Z" fill="#FF383C"/>
<path d="M86 4H90V8H86V4Z" fill="#FF383C"/>
<path d="M14 8H18V12H14V8Z" fill="#FF383C"/>
<path d="M14 12H18V16H14V12Z" fill="#FF383C"/>
<path d="M14 16H18V20H14V16Z" fill="#FF383C"/>
<path d="M14 20H18V24H14V20Z" fill="#FF383C"/>
<path d="M14 24H18V28H14V24Z" fill="#FF383C"/>
<path d="M14 28H18V32H14V28Z" fill="#FF383C"/>
<path d="M14 32H18V36H14V32Z" fill="#FF383C"/>
<path d="M14 36H18V40H14V36Z" fill="#FF383C"/>
<path d="M14 40H18V44H14V40Z" fill="#FF383C"/>
<path d="M14 44H18V48H14V44Z" fill="#FF383C"/>
<path d="M14 48H18V52H14V48Z" fill="#FF383C"/>
<path d="M14 52H18V56H14V52Z" fill="#FF383C"/>
<path d="M14 56H18V60H14V56Z" fill="#FF383C"/>
<path d="M14 60H18V64H14V60Z" fill="#FF383C"/>
<path d="M14 64H18V68H14V64Z" fill="#FF383C"/>
<path d="M14 68H18V72H14V68Z" fill="#FF383C"/>
<path d="M14 72H18V76H14V72Z" fill="#FF383C"/>
<path d="M14 76H18V80H14V76Z" fill="#FF383C"/>
<path d="M14 80H18V84H14V80Z" fill="#FF383C"/>
<path d="M14 84H18V88H14V84Z" fill="#FF383C"/>
<path d="M14 88H18V92H14V88Z" fill="#FF383C"/>
<path d="M14 92H18V96H14V92Z" fill="#FF383C"/>
<path d="M14 96H18V100H14V96Z" fill="#FF383C"/>
<path d="M38 96H42V100H38V96Z" fill="#FF383C"/>
<path d="M42 92H46V96H42V92Z" fill="#FF383C"/>
<path d="M46 88H50V92H46V88Z" fill="#FF383C"/>
<path d="M50 88H54V92H50V88Z" fill="#FF383C"/>
<path d="M54 88H58V92H54V88Z" fill="#FF383C"/>
<path d="M58 92H62V96H58V92Z" fill="#FF383C"/>
<path d="M62 96H66V100H62V96Z" fill="#FF383C"/>
<path d="M62 100H66V104H62V100Z" fill="#FF383C"/>
<path d="M62 104H66V108H62V104Z" fill="#FF383C"/>
<path d="M58 108H62V112H58V108Z" fill="#FF383C"/>
<path d="M54 112H58V116H54V112Z" fill="#FF383C"/>
<path d="M50 112H54V116H50V112Z" fill="#FF383C"/>
<path d="M46 112H50V116H46V112Z" fill="#FF383C"/>
<path d="M42 108H46V112H42V108Z" fill="#FF383C"/>
<path d="M14 100H18V104H14V100Z" fill="#FF383C"/>
<path d="M38 100H42V104H38V100Z" fill="#FF383C"/>
<path d="M14 104H18V108H14V104Z" fill="#FF383C"/>
<path d="M38 104H42V108H38V104Z" fill="#FF383C"/>
<path d="M14 108H18V112H14V108Z" fill="#FF383C"/>
<path d="M14 112H18V116H14V112Z" fill="#FF383C"/>
<path d="M14 116H18V120H14V116Z" fill="#FF383C"/>
<path d="M14 120H18V124H14V120Z" fill="#FF383C"/>
<path d="M14 124H18V128H14V124Z" fill="#FF383C"/>
<path d="M18 124H22V128H18V124Z" fill="#FF383C"/>
</svg>
