<svg width="128" height="128" viewBox="0 0 128 128" fill="none" xmlns="http://www.w3.org/2000/svg">
<path d="M14 4H18V8H14V4Z" fill="#FF383C"/>
<path d="M14 0H18V4H14V0Z" fill="#FF383C"/>
<path d="M18 0H22V4H18V0Z" fill="#FF383C"/>
<path d="M22 0H26V4H22V0Z" fill="#FF383C"/>
<path d="M26 0H30V4H26V0Z" fill="#FF383C"/>
<path d="M30 0H34V4H30V0Z" fill="#FF383C"/>
<path d="M34 0H38V4H34V0Z" fill="#FF383C"/>
<path d="M38 0H42V4H38V0Z" fill="#FF383C"/>
<path d="M42 0H46V4H42V0Z" fill="#FF383C"/>
<path d="M46 0H50V4H46V0Z" fill="#FF383C"/>
<path d="M50 0H54V4H50V0Z" fill="#FF383C"/>
<path d="M54 0H58V4H54V0Z" fill="#FF383C"/>
<path d="M58 0H62V4H58V0Z" fill="#FF383C"/>
<path d="M62 0H66V4H62V0Z" fill="#FF383C"/>
<path d="M66 0H70V4H66V0Z" fill="#FF383C"/>
<path d="M70 0H74V4H70V0Z" fill="#FF383C"/>
<path d="M74 0H78V4H74V0Z" fill="#FF383C"/>
<path d="M78 0H82V4H78V0Z" fill="#FF383C"/>
<path d="M82 0H86V4H82V0Z" fill="#FF383C"/>
<path d="M86 0H90V4H86V0Z" fill="#FF383C"/>
<path d="M90 4H94V8H90V4Z" fill="#FF383C"/>
<path d="M94 8H98V12H94V8Z" fill="#FF383C"/>
<path d="M98 12H102V16H98V12Z" fill="#FF383C"/>
<path d="M102 16H106V20H102V16Z" fill="#FF383C"/>
<path d="M106 20H110V24H106V20Z" fill="#FF383C"/>
<path d="M110 24H114V28H110V24Z" fill="#FF383C"/>
<path d="M110 28H114V32H110V28Z" fill="#FF383C"/>
<path d="M110 32H114V36H110V32Z" fill="#FF383C"/>
<path d="M110 36H114V40H110V36Z" fill="#FF383C"/>
<path d="M110 40H114V44H110V40Z" fill="#FF383C"/>
<path d="M110 44H114V48H110V44Z" fill="#FF383C"/>
<path d="M110 48H114V52H110V48Z" fill="#FF383C"/>
<path d="M110 52H114V56H110V52Z" fill="#FF383C"/>
<path d="M110 56H114V60H110V56Z" fill="#FF383C"/>
<path d="M110 60H114V64H110V60Z" fill="#FF383C"/>
<path d="M110 64H114V68H110V64Z" fill="#FF383C"/>
<path d="M110 68H114V72H110V68Z" fill="#FF383C"/>
<path d="M110 72H114V76H110V72Z" fill="#FF383C"/>
<path d="M110 76H114V80H110V76Z" fill="#FF383C"/>
<path d="M110 80H114V84H110V80Z" fill="#FF383C"/>
<path d="M110 84H114V88H110V84Z" fill="#FF383C"/>
<path d="M110 88H114V92H110V88Z" fill="#FF383C"/>
<path d="M110 92H114V96H110V92Z" fill="#FF383C"/>
<path d="M110 96H114V100H110V96Z" fill="#FF383C"/>
<path d="M110 100H114V104H110V100Z" fill="#FF383C"/>
<path d="M110 104H114V108H110V104Z" fill="#FF383C"/>
<path d="M110 108H114V112H110V108Z" fill="#FF383C"/>
<path d="M110 112H114V116H110V112Z" fill="#FF383C"/>
<path d="M110 116H114V120H110V116Z" fill="#FF383C"/>
<path d="M110 120H114V124H110V120Z" fill="#FF383C"/>
<path d="M110 124H114V128H110V124Z" fill="#FF383C"/>
<path d="M106 124H110V128H106V124Z" fill="#FF383C"/>
<path d="M102 124H106V128H102V124Z" fill="#FF383C"/>
<path d="M102 112H106V116H102V112Z" fill="#FF383C"/>
<path d="M102 108H106V112H102V108Z" fill="#FF383C"/>
<path d="M102 104H106V108H102V104Z" fill="#FF383C"/>
<path d="M102 100H106V104H102V100Z" fill="#FF383C"/>
<path d="M98 112H102V116H98V112Z" fill="#FF383C"/>
<path d="M98 108H102V112H98V108Z" fill="#FF383C"/>
<path d="M98 104H102V108H98V104Z" fill="#FF383C"/>
<path d="M98 100H102V104H98V100Z" fill="#FF383C"/>
<path d="M94 112H98V116H94V112Z" fill="#FF383C"/>
<path d="M94 108H98V112H94V108Z" fill="#FF383C"/>
<path d="M94 104H98V108H94V104Z" fill="#FF383C"/>
<path d="M94 100H98V104H94V100Z" fill="#FF383C"/>
<path d="M90 112H94V116H90V112Z" fill="#FF383C"/>
<path d="M90 108H94V112H90V108Z" fill="#FF383C"/>
<path d="M90 104H94V108H90V104Z" fill="#FF383C"/>
<path d="M90 100H94V104H90V100Z" fill="#FF383C"/>
<path d="M86 112H90V116H86V112Z" fill="#FF383C"/>
<path d="M86 108H90V112H86V108Z" fill="#FF383C"/>
<path d="M86 104H90V108H86V104Z" fill="#FF383C"/>
<path d="M86 100H90V104H86V100Z" fill="#FF383C"/>
<path d="M82 112H86V116H82V112Z" fill="#FF383C"/>
<path d="M82 108H86V112H82V108Z" fill="#FF383C"/>
<path d="M82 104H86V108H82V104Z" fill="#FF383C"/>
<path d="M82 100H86V104H82V100Z" fill="#FF383C"/>
<path d="M78 112H82V116H78V112Z" fill="#FF383C"/>
<path d="M78 108H82V112H78V108Z" fill="#FF383C"/>
<path d="M78 104H82V108H78V104Z" fill="#FF383C"/>
<path d="M78 100H82V104H78V100Z" fill="#FF383C"/>
<path d="M78 96H82V100H78V96Z" fill="#FF383C"/>
<path d="M78 92H82V96H78V92Z" fill="#FF383C"/>
<path d="M82 92H86V96H82V92Z" fill="#FF383C"/>
<path d="M86 92H90V96H86V92Z" fill="#FF383C"/>
<path d="M86 96H90V100H86V96Z" fill="#FF383C"/>
<path d="M90 92H94V96H90V92Z" fill="#FF383C"/>
<path d="M90 96H94V100H90V96Z" fill="#FF383C"/>
<path d="M94 92H98V96H94V92Z" fill="#FF383C"/>
<path d="M94 96H98V100H94V96Z" fill="#FF383C"/>
<path d="M98 92H102V96H98V92Z" fill="#FF383C"/>
<path d="M98 96H102V100H98V96Z" fill="#FF383C"/>
<path d="M102 92H106V96H102V92Z" fill="#FF383C"/>
<path d="M102 96H106V100H102V96Z" fill="#FF383C"/>
<path d="M74 92H78V96H74V92Z" fill="#FF383C"/>
<path d="M66 92H70V96H66V92Z" fill="#FF383C"/>
<path d="M74 112H78V116H74V112Z" fill="#FF383C"/>
<path d="M74 108H78V112H74V108Z" fill="#FF383C"/>
<path d="M74 104H78V108H74V104Z" fill="#FF383C"/>
<path d="M74 100H78V104H74V100Z" fill="#FF383C"/>
<path d="M70 112H74V116H70V112Z" fill="#FF383C"/>
<path d="M70 108H74V112H70V108Z" fill="#FF383C"/>
<path d="M70 104H74V108H70V104Z" fill="#FF383C"/>
<path d="M66 104H70V108H66V104Z" fill="#FF383C"/>
<path d="M62 104H66V108H62V104Z" fill="#FF383C"/>
<path d="M70 100H74V104H70V100Z" fill="#FF383C"/>
<path d="M66 112H70V116H66V112Z" fill="#FF383C"/>
<path d="M62 112H66V116H62V112Z" fill="#FF383C"/>
<path d="M58 112H62V116H58V112Z" fill="#FF383C"/>
<path d="M46 112H50V116H46V112Z" fill="#FF383C"/>
<path d="M42 108H46V112H42V108Z" fill="#FF383C"/>
<path d="M34 108H38V112H34V108Z" fill="#FF383C"/>
<path d="M42 112H46V116H42V112Z" fill="#FF383C"/>
<path d="M38 108H42V112H38V108Z" fill="#FF383C"/>
<path d="M30 104H34V108H30V104Z" fill="#FF383C"/>
<path d="M34 104H38V108H34V104Z" fill="#FF383C"/>
<path d="M38 104H42V108H38V104Z" fill="#FF383C"/>
<path d="M42 104H46V108H42V104Z" fill="#FF383C"/>
<path d="M42 100H46V104H42V100Z" fill="#FF383C"/>
<path d="M42 96H46V100H42V96Z" fill="#FF383C"/>
<path d="M38 96H42V100H38V96Z" fill="#FF383C"/>
<path d="M38 92H42V96H38V92Z" fill="#FF383C"/>
<path d="M38 88H42V92H38V88Z" fill="#FF383C"/>
<path d="M38 84H42V88H38V84Z" fill="#FF383C"/>
<path d="M38 80H42V84H38V80Z" fill="#FF383C"/>
<path d="M38 76H42V80H38V76Z" fill="#FF383C"/>
<path d="M38 72H42V76H38V72Z" fill="#FF383C"/>
<path d="M42 68H46V72H42V68Z" fill="#FF383C"/>
<path d="M42 64H46V68H42V64Z" fill="#FF383C"/>
<path d="M42 60H46V64H42V60Z" fill="#FF383C"/>
<path d="M42 56H46V60H42V56Z" fill="#FF383C"/>
<path d="M42 52H46V56H42V52Z" fill="#FF383C"/>
<path d="M42 48H46V52H42V48Z" fill="#FF383C"/>
<path d="M42 44H46V48H42V44Z" fill="#FF383C"/>
<path d="M42 40H46V44H42V40Z" fill="#FF383C"/>
<path d="M42 36H46V40H42V36Z" fill="#FF383C"/>
<path d="M42 32H46V36H42V32Z" fill="#FF383C"/>
<path d="M42 28H46V32H42V28Z" fill="#FF383C"/>
<path d="M42 24H46V28H42V24Z" fill="#FF383C"/>
<path d="M42 20H46V24H42V20Z" fill="#FF383C"/>
<path d="M42 16H46V20H42V16Z" fill="#FF383C"/>
<path d="M42 12H46V16H42V12Z" fill="#FF383C"/>
<path d="M42 8H46V12H42V8Z" fill="#FF383C"/>
<path d="M42 88H46V92H42V88Z" fill="#FF383C"/>
<path d="M46 88H50V92H46V88Z" fill="#FF383C"/>
<path d="M46 92H50V96H46V92Z" fill="#FF383C"/>
<path d="M42 84H46V88H42V84Z" fill="#FF383C"/>
<path d="M46 84H50V88H46V84Z" fill="#FF383C"/>
<path d="M42 80H46V84H42V80Z" fill="#FF383C"/>
<path d="M42 76H46V80H42V76Z" fill="#FF383C"/>
<path d="M34 96H38V100H34V96Z" fill="#FF383C"/>
<path d="M34 92H38V96H34V92Z" fill="#FF383C"/>
<path d="M34 88H38V92H34V88Z" fill="#FF383C"/>
<path d="M34 84H38V88H34V84Z" fill="#FF383C"/>
<path d="M34 80H38V84H34V80Z" fill="#FF383C"/>
<path d="M34 76H38V80H34V76Z" fill="#FF383C"/>
<path d="M34 72H38V76H34V72Z" fill="#FF383C"/>
<path d="M30 96H34V100H30V96Z" fill="#FF383C"/>
<path d="M30 92H34V96H30V92Z" fill="#FF383C"/>
<path d="M30 88H34V92H30V88Z" fill="#FF383C"/>
<path d="M30 84H34V88H30V84Z" fill="#FF383C"/>
<path d="M30 80H34V84H30V80Z" fill="#FF383C"/>
<path d="M30 76H34V80H30V76Z" fill="#FF383C"/>
<path d="M30 72H34V76H30V72Z" fill="#FF383C"/>
<path d="M26 68H30V72H26V68Z" fill="#FF383C"/>
<path d="M26 64H30V68H26V64Z" fill="#FF383C"/>
<path d="M26 60H30V64H26V60Z" fill="#FF383C"/>
<path d="M26 56H30V60H26V56Z" fill="#FF383C"/>
<path d="M26 52H30V56H26V52Z" fill="#FF383C"/>
<path d="M26 48H30V52H26V48Z" fill="#FF383C"/>
<path d="M30 48H34V52H30V48Z" fill="#FF383C"/>
<path d="M34 48H38V52H34V48Z" fill="#FF383C"/>
<path d="M38 48H42V52H38V48Z" fill="#FF383C"/>
<path d="M26 44H30V48H26V44Z" fill="#FF383C"/>
<path d="M30 44H34V48H30V44Z" fill="#FF383C"/>
<path d="M34 44H38V48H34V44Z" fill="#FF383C"/>
<path d="M26 40H30V44H26V40Z" fill="#FF383C"/>
<path d="M30 40H34V44H30V40Z" fill="#FF383C"/>
<path d="M34 40H38V44H34V40Z" fill="#FF383C"/>
<path d="M26 36H30V40H26V36Z" fill="#FF383C"/>
<path d="M30 36H34V40H30V36Z" fill="#FF383C"/>
<path d="M34 36H38V40H34V36Z" fill="#FF383C"/>
<path d="M26 32H30V36H26V32Z" fill="#FF383C"/>
<path d="M30 32H34V36H30V32Z" fill="#FF383C"/>
<path d="M34 32H38V36H34V32Z" fill="#FF383C"/>
<path d="M26 28H30V32H26V28Z" fill="#FF383C"/>
<path d="M30 28H34V32H30V28Z" fill="#FF383C"/>
<path d="M34 28H38V32H34V28Z" fill="#FF383C"/>
<path d="M26 24H30V28H26V24Z" fill="#FF383C"/>
<path d="M30 24H34V28H30V24Z" fill="#FF383C"/>
<path d="M34 24H38V28H34V24Z" fill="#FF383C"/>
<path d="M26 20H30V24H26V20Z" fill="#FF383C"/>
<path d="M30 20H34V24H30V20Z" fill="#FF383C"/>
<path d="M34 20H38V24H34V20Z" fill="#FF383C"/>
<path d="M26 16H30V20H26V16Z" fill="#FF383C"/>
<path d="M30 16H34V20H30V16Z" fill="#FF383C"/>
<path d="M34 16H38V20H34V16Z" fill="#FF383C"/>
<path d="M26 12H30V16H26V12Z" fill="#FF383C"/>
<path d="M30 12H34V16H30V12Z" fill="#FF383C"/>
<path d="M34 12H38V16H34V12Z" fill="#FF383C"/>
<path d="M26 8H30V12H26V8Z" fill="#FF383C"/>
<path d="M30 8H34V12H30V8Z" fill="#FF383C"/>
<path d="M34 8H38V12H34V8Z" fill="#FF383C"/>
<path d="M30 100H34V104H30V100Z" fill="#FF383C"/>
<path d="M34 100H38V104H34V100Z" fill="#FF383C"/>
<path d="M26 96H30V100H26V96Z" fill="#FF383C"/>
<path d="M26 92H30V96H26V92Z" fill="#FF383C"/>
<path d="M26 88H30V92H26V88Z" fill="#FF383C"/>
<path d="M26 84H30V88H26V84Z" fill="#FF383C"/>
<path d="M26 80H30V84H26V80Z" fill="#FF383C"/>
<path d="M26 76H30V80H26V76Z" fill="#FF383C"/>
<path d="M46 96H50V100H46V96Z" fill="#FF383C"/>
<path d="M98 124H102V128H98V124Z" fill="#FF383C"/>
<path d="M94 124H98V128H94V124Z" fill="#FF383C"/>
<path d="M90 124H94V128H90V124Z" fill="#FF383C"/>
<path d="M86 124H90V128H86V124Z" fill="#FF383C"/>
<path d="M82 124H86V128H82V124Z" fill="#FF383C"/>
<path d="M78 124H82V128H78V124Z" fill="#FF383C"/>
<path d="M74 124H78V128H74V124Z" fill="#FF383C"/>
<path d="M70 124H74V128H70V124Z" fill="#FF383C"/>
<path d="M66 124H70V128H66V124Z" fill="#FF383C"/>
<path d="M62 124H66V128H62V124Z" fill="#FF383C"/>
<path d="M58 124H62V128H58V124Z" fill="#FF383C"/>
<path d="M54 124H58V128H54V124Z" fill="#FF383C"/>
<path d="M50 124H54V128H50V124Z" fill="#FF383C"/>
<path d="M46 124H50V128H46V124Z" fill="#FF383C"/>
<path d="M42 124H46V128H42V124Z" fill="#FF383C"/>
<path d="M38 124H42V128H38V124Z" fill="#FF383C"/>
<path d="M34 124H38V128H34V124Z" fill="#FF383C"/>
<path d="M30 124H34V128H30V124Z" fill="#FF383C"/>
<path d="M26 124H30V128H26V124Z" fill="#FF383C"/>
<path d="M22 124H26V128H22V124Z" fill="#FF383C"/>
<path d="M106 24H110V28H106V24Z" fill="#FF383C"/>
<path d="M102 24H106V28H102V24Z" fill="#FF383C"/>
<path d="M98 24H102V28H98V24Z" fill="#FF383C"/>
<path d="M94 24H98V28H94V24Z" fill="#FF383C"/>
<path d="M90 24H94V28H90V24Z" fill="#FF383C"/>
<path d="M86 24H90V28H86V24Z" fill="#FF383C"/>
<path d="M86 20H90V24H86V20Z" fill="#FF383C"/>
<path d="M86 16H90V20H86V16Z" fill="#FF383C"/>
<path d="M86 12H90V16H86V12Z" fill="#FF383C"/>
<path d="M86 8H90V12H86V8Z" fill="#FF383C"/>
<path d="M86 4H90V8H86V4Z" fill="#FF383C"/>
<path d="M14 8H18V12H14V8Z" fill="#FF383C"/>
<path d="M14 12H18V16H14V12Z" fill="#FF383C"/>
<path d="M14 16H18V20H14V16Z" fill="#FF383C"/>
<path d="M14 20H18V24H14V20Z" fill="#FF383C"/>
<path d="M14 24H18V28H14V24Z" fill="#FF383C"/>
<path d="M14 28H18V32H14V28Z" fill="#FF383C"/>
<path d="M14 32H18V36H14V32Z" fill="#FF383C"/>
<path d="M14 36H18V40H14V36Z" fill="#FF383C"/>
<path d="M14 40H18V44H14V40Z" fill="#FF383C"/>
<path d="M14 44H18V48H14V44Z" fill="#FF383C"/>
<path d="M14 48H18V52H14V48Z" fill="#FF383C"/>
<path d="M14 52H18V56H14V52Z" fill="#FF383C"/>
<path d="M14 56H18V60H14V56Z" fill="#FF383C"/>
<path d="M14 60H18V64H14V60Z" fill="#FF383C"/>
<path d="M14 64H18V68H14V64Z" fill="#FF383C"/>
<path d="M14 68H18V72H14V68Z" fill="#FF383C"/>
<path d="M14 72H18V76H14V72Z" fill="#FF383C"/>
<path d="M14 76H18V80H14V76Z" fill="#FF383C"/>
<path d="M14 80H18V84H14V80Z" fill="#FF383C"/>
<path d="M14 84H18V88H14V84Z" fill="#FF383C"/>
<path d="M14 88H18V92H14V88Z" fill="#FF383C"/>
<path d="M14 92H18V96H14V92Z" fill="#FF383C"/>
<path d="M14 96H18V100H14V96Z" fill="#FF383C"/>
<path d="M14 100H18V104H14V100Z" fill="#FF383C"/>
<path d="M14 104H18V108H14V104Z" fill="#FF383C"/>
<path d="M14 108H18V112H14V108Z" fill="#FF383C"/>
<path d="M14 112H18V116H14V112Z" fill="#FF383C"/>
<path d="M14 116H18V120H14V116Z" fill="#FF383C"/>
<path d="M14 120H18V124H14V120Z" fill="#FF383C"/>
<path d="M14 124H18V128H14V124Z" fill="#FF383C"/>
<path d="M18 124H22V128H18V124Z" fill="#FF383C"/>
</svg>
