<svg width="128" height="128" viewBox="0 0 128 128" fill="none" xmlns="http://www.w3.org/2000/svg">
<path d="M0 32H4V36H0V32Z" fill="#FF383C"/>
<path d="M0 36H4V40H0V36Z" fill="#FF383C"/>
<path d="M0 40H4V44H0V40Z" fill="#FF383C"/>
<path d="M0 44H4V48H0V44Z" fill="#FF383C"/>
<path d="M0 48H4V52H0V48Z" fill="#FF383C"/>
<path d="M0 52H4V56H0V52Z" fill="#FF383C"/>
<path d="M0 56H4V60H0V56Z" fill="#FF383C"/>
<path d="M0 60H4V64H0V60Z" fill="#FF383C"/>
<path d="M0 64H4V68H0V64Z" fill="#FF383C"/>
<path d="M0 68H4V72H0V68Z" fill="#FF383C"/>
<path d="M0 72H4V76H0V72Z" fill="#FF383C"/>
<path d="M0 76H4V80H0V76Z" fill="#FF383C"/>
<path d="M0 80H4V84H0V80Z" fill="#FF383C"/>
<path d="M0 84H4V88H0V84Z" fill="#FF383C"/>
<path d="M0 88H4V92H0V88Z" fill="#FF383C"/>
<path d="M0 92H4V96H0V92Z" fill="#FF383C"/>
<path d="M0 96H4V100H0V96Z" fill="#FF383C"/>
<path d="M0 100H4V104H0V100Z" fill="#FF383C"/>
<path d="M0 104H4V108H0V104Z" fill="#FF383C"/>
<path d="M124 32H128V36H124V32Z" fill="#FF383C"/>
<path d="M124 36H128V40H124V36Z" fill="#FF383C"/>
<path d="M124 40H128V44H124V40Z" fill="#FF383C"/>
<path d="M124 44H128V48H124V44Z" fill="#FF383C"/>
<path d="M124 48H128V52H124V48Z" fill="#FF383C"/>
<path d="M124 52H128V56H124V52Z" fill="#FF383C"/>
<path d="M124 56H128V60H124V56Z" fill="#FF383C"/>
<path d="M124 60H128V64H124V60Z" fill="#FF383C"/>
<path d="M124 64H128V68H124V64Z" fill="#FF383C"/>
<path d="M124 68H128V72H124V68Z" fill="#FF383C"/>
<path d="M124 72H128V76H124V72Z" fill="#FF383C"/>
<path d="M124 76H128V80H124V76Z" fill="#FF383C"/>
<path d="M124 80H128V84H124V80Z" fill="#FF383C"/>
<path d="M124 84H128V88H124V84Z" fill="#FF383C"/>
<path d="M124 88H128V92H124V88Z" fill="#FF383C"/>
<path d="M124 92H128V96H124V92Z" fill="#FF383C"/>
<path d="M124 96H128V100H124V96Z" fill="#FF383C"/>
<path d="M124 100H128V104H124V100Z" fill="#FF383C"/>
<path d="M124 104H128V108H124V104Z" fill="#FF383C"/>
<path d="M0 108H4V112H0V108Z" fill="#FF383C"/>
<path d="M4 108H8V112H4V108Z" fill="#FF383C"/>
<path d="M8 108H12V112H8V108Z" fill="#FF383C"/>
<path d="M12 108H16V112H12V108Z" fill="#FF383C"/>
<path d="M16 108H20V112H16V108Z" fill="#FF383C"/>
<path d="M20 108H24V112H20V108Z" fill="#FF383C"/>
<path d="M24 108H28V112H24V108Z" fill="#FF383C"/>
<path d="M28 108H32V112H28V108Z" fill="#FF383C"/>
<path d="M32 108H36V112H32V108Z" fill="#FF383C"/>
<path d="M36 108H40V112H36V108Z" fill="#FF383C"/>
<path d="M40 108H44V112H40V108Z" fill="#FF383C"/>
<path d="M44 108H48V112H44V108Z" fill="#FF383C"/>
<path d="M48 108H52V112H48V108Z" fill="#FF383C"/>
<path d="M52 108H56V112H52V108Z" fill="#FF383C"/>
<path d="M56 108H60V112H56V108Z" fill="#FF383C"/>
<path d="M60 108H64V112H60V108Z" fill="#FF383C"/>
<path d="M64 108H68V112H64V108Z" fill="#FF383C"/>
<path d="M68 108H72V112H68V108Z" fill="#FF383C"/>
<path d="M72 108H76V112H72V108Z" fill="#FF383C"/>
<path d="M76 108H80V112H76V108Z" fill="#FF383C"/>
<path d="M80 108H84V112H80V108Z" fill="#FF383C"/>
<path d="M84 108H88V112H84V108Z" fill="#FF383C"/>
<path d="M88 108H92V112H88V108Z" fill="#FF383C"/>
<path d="M92 108H96V112H92V108Z" fill="#FF383C"/>
<path d="M96 108H100V112H96V108Z" fill="#FF383C"/>
<path d="M100 108H104V112H100V108Z" fill="#FF383C"/>
<path d="M104 108H108V112H104V108Z" fill="#FF383C"/>
<path d="M108 108H112V112H108V108Z" fill="#FF383C"/>
<path d="M112 108H116V112H112V108Z" fill="#FF383C"/>
<path d="M116 108H120V112H116V108Z" fill="#FF383C"/>
<path d="M120 108H124V112H120V108Z" fill="#FF383C"/>
<path d="M4 28H8V32H4V28Z" fill="#FF383C"/>
<path d="M8 28H12V32H8V28Z" fill="#FF383C"/>
<path d="M8 24H12V28H8V24Z" fill="#FF383C"/>
<path d="M12 20H16V24H12V20Z" fill="#FF383C"/>
<path d="M16 16H20V20H16V16Z" fill="#FF383C"/>
<path d="M52 24H56V28H52V24Z" fill="#FF383C"/>
<path d="M48 20H52V24H48V20Z" fill="#FF383C"/>
<path d="M44 16H48V20H44V16Z" fill="#FF383C"/>
<path d="M40 16H44V20H40V16Z" fill="#FF383C"/>
<path d="M36 16H40V20H36V16Z" fill="#FF383C"/>
<path d="M32 16H36V20H32V16Z" fill="#FF383C"/>
<path d="M28 16H32V20H28V16Z" fill="#FF383C"/>
<path d="M24 16H28V20H24V16Z" fill="#FF383C"/>
<path d="M20 16H24V20H20V16Z" fill="#FF383C"/>
<path d="M12 28H16V32H12V28Z" fill="#FF383C"/>
<path d="M16 28H20V32H16V28Z" fill="#FF383C"/>
<path d="M20 28H24V32H20V28Z" fill="#FF383C"/>
<path d="M24 28H28V32H24V28Z" fill="#FF383C"/>
<path d="M28 28H32V32H28V28Z" fill="#FF383C"/>
<path d="M32 28H36V32H32V28Z" fill="#FF383C"/>
<path d="M36 28H40V32H36V28Z" fill="#FF383C"/>
<path d="M40 28H44V32H40V28Z" fill="#FF383C"/>
<path d="M44 28H48V32H44V28Z" fill="#FF383C"/>
<path d="M48 28H52V32H48V28Z" fill="#FF383C"/>
<path d="M52 28H56V32H52V28Z" fill="#FF383C"/>
<path d="M56 28H60V32H56V28Z" fill="#FF383C"/>
<path d="M60 28H64V32H60V28Z" fill="#FF383C"/>
<path d="M64 28H68V32H64V28Z" fill="#FF383C"/>
<path d="M68 28H72V32H68V28Z" fill="#FF383C"/>
<path d="M72 28H76V32H72V28Z" fill="#FF383C"/>
<path d="M76 28H80V32H76V28Z" fill="#FF383C"/>
<path d="M80 28H84V32H80V28Z" fill="#FF383C"/>
<path d="M84 28H88V32H84V28Z" fill="#FF383C"/>
<path d="M88 28H92V32H88V28Z" fill="#FF383C"/>
<path d="M92 28H96V32H92V28Z" fill="#FF383C"/>
<path d="M96 28H100V32H96V28Z" fill="#FF383C"/>
<path d="M100 28H104V32H100V28Z" fill="#FF383C"/>
<path d="M104 28H108V32H104V28Z" fill="#FF383C"/>
<path d="M108 28H112V32H108V28Z" fill="#FF383C"/>
<path d="M112 28H116V32H112V28Z" fill="#FF383C"/>
<path d="M116 28H120V32H116V28Z" fill="#FF383C"/>
<path d="M120 28H124V32H120V28Z" fill="#FF383C"/>
<path d="M124 108H128V112H124V108Z" fill="#FF383C"/>
</svg>
